<?xml version="1.0" encoding="iso-8859-1"?><svg xmlns="http://www.w3.org/2000/svg" xmlns:xlink="http://www.w3.org/1999/xlink"><symbol viewBox="0 0 90 90" id="thumb-up"><path d="M63.241 31.814c-.659-1.777 17.699-18.172 6.99-31.457-2.507-3.109-11.006 14.875-23.077 23.018C40.495 27.867 25 37.429 25 42.711v34.202C25 83.272 49.568 90 68.246 90 75.083 90 85 47.124 85 40.312c0-6.836-21.1-6.72-21.759-8.498zM20 32.29c-3.288 0-15 2-15 15.608v24.24c0 13.609 11.712 15.109 15 15.109 3.287 0-5-2.863-5-11.297V44.086c0-8.842 8.287-11.796 5-11.796z" fill="#030104"/></symbol></svg>