<?xml version="1.0" encoding="utf-8"?><svg xmlns="http://www.w3.org/2000/svg" xmlns:xlink="http://www.w3.org/1999/xlink"><symbol preserveAspectRatio="xMidYMid" viewBox="0 0 18 11" id="email"><defs><style>.acls-1{fill:#666;fill-rule:evenodd}</style></defs><path d="M17.988.926A.926.926 0 0 0 17.066 0h-.001L.921.022A.923.923 0 0 0 0 .951l.013 9.122A.921.921 0 0 0 .935 11h.001l16.144-.023a.925.925 0 0 0 .92-.928L17.988.926zm-1.935.002L9.001 5.859 1.935.948l14.118-.02zm-4.07 5.861l4.183 3.262-14.343.02 4.208-3.282a.465.465 0 0 0 .082-.65.459.459 0 0 0-.647-.083L.934 9.591l-.011-8.22L8.74 6.804a.456.456 0 0 0 .525 0l7.802-5.455.011 8.241-4.53-3.534a.459.459 0 0 0-.647.083.465.465 0 0 0 .082.65z" class="acls-1"/></symbol><symbol preserveAspectRatio="xMidYMid" viewBox="0 0 17 18" id="schedule"><defs><style>.bcls-1{fill:#1a1a1a;fill-rule:evenodd}</style></defs><path d="M16.481 14.103h-3.182c-.51 2.229-2.467 3.895-4.799 3.895-2.332 0-4.29-1.665-4.8-3.895H.518A.524.524 0 0 1 0 13.572V1.583c0-.293.232-.53.518-.53h3.526V.529c0-.293.232-.53.519-.53.286 0 .518.237.518.53v.524h2.9V.529c0-.293.232-.53.519-.53.286 0 .518.237.518.53v.524h3.029V.529c0-.293.232-.53.519-.53.286 0 .518.237.518.53v.524h3.397c.287 0 .519.237.519.53v11.989a.525.525 0 0 1-.519.531zM8.5 16.937c2.146 0 3.893-1.787 3.893-3.984 0-2.196-1.747-3.984-3.893-3.984-2.147 0-3.893 1.788-3.893 3.984 0 2.197 1.746 3.984 3.893 3.984zm-7.463-3.895h2.535l-.002-.089c0-2.782 2.211-5.045 4.93-5.045 2.718 0 4.93 2.263 4.93 5.045 0 .03-.002.059-.003.089h2.536V5.345H1.037v7.697zM15.963 2.114h-2.879v.479c0 .293-.232.53-.518.53a.524.524 0 0 1-.519-.53v-.479H9.018v.479c0 .293-.232.53-.518.53a.524.524 0 0 1-.519-.53v-.479h-2.9v.479c0 .293-.232.53-.518.53a.524.524 0 0 1-.519-.53v-.479H1.037v2.17h14.926v-2.17zM8.5 9.99c.286 0 .518.237.518.53v2.567l1.04 1.064a.54.54 0 0 1 0 .75.51.51 0 0 1-.733 0l-1.192-1.219a.536.536 0 0 1-.152-.375V10.52c0-.293.232-.53.519-.53z" class="bcls-1"/></symbol></svg>